<svg id="Layer_1" data-name="Layer 1" xmlns="http://www.w3.org/2000/svg" viewBox="0 0 35 35"><defs><style>.cls-1{fill:#2173f7;}</style></defs><title>iconIM</title><path class="cls-1" d="M16,9.42h-4.6a1.55,1.55,0,1,0,0,3.09H16a1.55,1.55,0,0,0,0-3.09Zm0,2.09h-4.6a.55.55,0,0,1-.55-.55.55.55,0,0,1,.55-.54H16a.54.54,0,0,1,.54.54A.55.55,0,0,1,16,11.51Z"/><path class="cls-1" d="M27.37,17v-11s0-.06,0-.09a.13.13,0,0,1,0-.06.55.55,0,0,0-.14-.22,0,0,0,0,1,0,0L22.88,2.12A.47.47,0,0,0,22.56,2H4.93a.47.47,0,0,0-.31.12L.31,5.68a0,0,0,0,1,0,0,.46.46,0,0,0-.14.22A.13.13,0,0,0,.15,6a.29.29,0,0,0,0,.09V29a.5.5,0,0,0,.5.5h19.6A8,8,0,1,0,27.37,17ZM25.48,5.56H14.24V3h8.14ZM5.11,3h8.13V5.56H2Zm-4,25.47V6.56H26.37V17a8,8,0,0,0-6.7,11.46ZM26.87,32a7,7,0,1,1,7-7A7,7,0,0,1,26.87,32Z"/><path class="cls-1" d="M30.38,24.49h-3V20.1a.5.5,0,0,0-.5-.5.5.5,0,0,0-.5.5V25a.5.5,0,0,0,.5.5h3.51a.5.5,0,0,0,.5-.5A.5.5,0,0,0,30.38,24.49Z"/></svg>