<svg id="Layer_1" data-name="Layer 1" xmlns="http://www.w3.org/2000/svg" viewBox="0 0 35 35"><defs><style>.cls-1{fill:#2173f7;}</style></defs><title>iconIM</title><path class="cls-1" d="M34,3.35H11.3a.5.5,0,0,0-.5.5V8H1a.5.5,0,0,0-.5.5v4.86a.5.5,0,0,0,.5.5h.8V31.15a.5.5,0,0,0,.5.5H23.7a.5.5,0,0,0,.5-.5V25.74h8.57a.5.5,0,0,0,.5-.5V8.94H34a.5.5,0,0,0,.5-.5V3.85A.5.5,0,0,0,34,3.35ZM1.5,9h23v3.86H1.5ZM23.2,30.65H2.8V13.89H23.2Zm9.07-5.91H24.2V13.89H25a.51.51,0,0,0,.5-.5V8.94h6.77ZM33.5,7.94H11.8V4.35H33.5Z"/><path class="cls-1" d="M15.7,16.58H10.29a1.73,1.73,0,1,0,0,3.46H15.7a1.73,1.73,0,0,0,0-3.46Zm0,2.46H10.29a.73.73,0,0,1,0-1.46H15.7a.73.73,0,0,1,0,1.46Z"/></svg>