<svg id="Layer_1" data-name="Layer 1" xmlns="http://www.w3.org/2000/svg" viewBox="0 0 35 35"><defs><style>.cls-1{fill:#2173f7;}</style></defs><title>iconIM</title><path class="cls-1" d="M16.16,17.56H12.28a1.38,1.38,0,0,0,0,2.76h3.88a1.38,1.38,0,0,0,0-2.76Zm0,1.76H12.28a.38.38,0,0,1,0-.76h3.88a.38.38,0,0,1,0,.76Z"/><path class="cls-1" d="M34.38,14.49l-3.69-4.35a.49.49,0,0,0-.42-.17H21.82a.5.5,0,0,0,0,1h7l-1.14,1L25,14.29l0,0H4.41L7.85,11h3.88a.5.5,0,0,0,0-1H7.65a.5.5,0,0,0-.35.14L2.83,14.45h0l-.05.07,0,.06L.56,18.71a.49.49,0,0,0,.09.59.52.52,0,0,0,.35.14.5.5,0,0,0,.24-.06l1.44-.79V34.11a.5.5,0,0,0,.5.5h22.1a.58.58,0,0,0,.19,0l.17-.11h0l4.92-5.05a.5.5,0,0,0,.14-.35V18.42l3.63-3.24A.48.48,0,0,0,34.38,14.49ZM2.22,17.7l.46-.87v.61Zm1.46-2.39h21.1v18.3H3.68Zm26,13.54-3.92,4V15.83l3,3.59a.51.51,0,0,0,.35.17h0a.54.54,0,0,0,.34-.12l.16-.16Zm-.45-10.47-3.11-3.67,2.17-2,1.9-1.63,3.09,3.65Z"/><path class="cls-1" d="M11.05,1.26c3.49,1,3.83,2.88,3.83,6.13v.16H13.79a.51.51,0,0,0-.45.25.41.41,0,0,0,.06.47L16.73,12a.56.56,0,0,0,.39.17.53.53,0,0,0,.39-.17l3.34-3.7a.41.41,0,0,0,.06-.47.53.53,0,0,0-.45-.25H19.19C18.92,3,16.68.39,11.49.39h-.3a.5.5,0,0,0-.48.38A.44.44,0,0,0,11.05,1.26ZM18.2,8a.47.47,0,0,0,.5.45h.72L17.12,11,14.83,8.44h.52a.48.48,0,0,0,.5-.41c0-.21,0-.43,0-.64,0-2.75,0-4-1.9-5.79C16.91,2.39,18.2,4.5,18.2,8Z"/></svg>