<svg id="Layer_1" data-name="Layer 1" xmlns="http://www.w3.org/2000/svg" viewBox="0 0 35 35"><defs><style>.cls-1{fill:#2173f7;}</style></defs><title>iconIM</title><path class="cls-1" d="M34.35,9.28,24.12,3.9a.51.51,0,0,0-.45,0l-5.75,3h0l-4-2.12a.47.47,0,0,0-.46,0L.66,11.52A.49.49,0,0,0,.39,12V30.65a.5.5,0,0,0,.5.5H26.43a.5.5,0,0,0,.5-.5V25.17h7.2a.49.49,0,0,0,.48-.48V9.7A.48.48,0,0,0,34.35,9.28Zm-28.66,6h15.9V30.15H5.69ZM25.93,30.15h-3.3V14.8a.51.51,0,0,0-.5-.5h-17a.5.5,0,0,0-.5.5V30.15H1.39V12.26L13.66,5.82l12.27,6.44Zm1-17.68h3.24V24.21H26.93Zm6.71,11.74H31.16V12a.49.49,0,0,0-.48-.48H26.63L19,7.47l4.94-2.6L33.64,10Z"/><path class="cls-1" d="M15.69,27.71H11.63a.5.5,0,0,0-.5.5.5.5,0,0,0,.5.5h4.06a.5.5,0,0,0,.5-.5A.5.5,0,0,0,15.69,27.71Z"/></svg>