<svg id="Layer_1" data-name="Layer 1" xmlns="http://www.w3.org/2000/svg" viewBox="0 0 35 35"><defs><style>.cls-1{fill:#2173f7;}</style></defs><title>iconIM</title><path class="cls-1" d="M15.91,9.42H11.32a1.55,1.55,0,1,0,0,3.09h4.59a1.55,1.55,0,1,0,0-3.09Zm0,2.09H11.32a.55.55,0,0,1-.55-.55.55.55,0,0,1,.55-.54h4.59a.55.55,0,0,1,.55.54A.55.55,0,0,1,15.91,11.51Z"/><path class="cls-1" d="M27.24,17h0V6.06s0-.06,0-.09,0,0,0-.06a.4.4,0,0,0-.14-.22,0,0,0,0,0,0,0l-4.3-3.56A.47.47,0,0,0,22.44,2H4.81a.49.49,0,0,0-.32.12L.19,5.68a0,0,0,0,0,0,0A.46.46,0,0,0,0,5.91.13.13,0,0,0,0,6a.29.29,0,0,0,0,.09V29a.5.5,0,0,0,.5.5H19.93a.58.58,0,0,0,.19,0A8,8,0,1,0,27.24,17ZM25.36,5.56H14.12V3h8.14ZM5,3h8.13V5.56H1.9ZM1,28.47V6.56H26.25V17h0a8,8,0,0,0-6.68,11.46ZM26.77,32a7,7,0,1,1,7-7A7,7,0,0,1,26.77,32Z"/><path class="cls-1" d="M27.33,24.69V22.45c.35.06.63.23,1.24.92l.67-.59a2.84,2.84,0,0,0-1.91-1.19V20.46h-1v1.13a2,2,0,0,0-1.72,1.83,2.05,2.05,0,0,0,1.72,1.93v2.47c-.6-.08-.92-.57-1.24-1l-.75.55a2.67,2.67,0,0,0,2,1.35v1.13h1V28.68a2,2,0,0,0,2.07-1.94A2.14,2.14,0,0,0,27.33,24.69Zm-1-.26a1,1,0,0,1,0-2Zm1,3.39v-2.2a1.21,1.21,0,0,1,1.12,1.11A1.13,1.13,0,0,1,27.33,27.82Z"/></svg>