<svg xmlns="http://www.w3.org/2000/svg" width="30" height="30" viewBox="0 0 30 30">
    <g fill="none" fill-rule="nonzero">
        <path d="M0 0h30v30H0z"/>
        <g transform="translate(2.5 2.75)">
            <path stroke="#5486FF" stroke-linecap="round" stroke-linejoin="round" stroke-width="1.5" d="M5 9.25V.75h15v8.5"/>
            <circle cx="7.188" cy="12.938" r="1" fill="#5486FF"/>
            <circle cx="10.938" cy="12.938" r="1" fill="#5486FF"/>
            <circle cx="14.688" cy="12.938" r="1" fill="#5486FF"/>
            <circle cx="18.438" cy="12.938" r="1" fill="#5486FF"/>
            <path stroke="#5486FF" stroke-linecap="round" stroke-linejoin="round" stroke-width="1.5" d="M5 15.75h15v4H5z"/>
            <path stroke="#5486FF" stroke-width="1.5" d="M3 9.75h19a3 3 0 0 1 3 3v10a1 1 0 0 1-1 1H1a1 1 0 0 1-1-1v-10a3 3 0 0 1 3-3z"/>
            <path stroke="#5486FF" stroke-linecap="round" stroke-linejoin="round" stroke-width="1.5" d="M8.125 3.75H17.5M8.125 6.75H17.5"/>
        </g>
    </g>
</svg>
