<?xml version="1.0" encoding="utf-8"?>
<!-- Generator: Adobe Illustrator 22.1.0, SVG Export Plug-In . SVG Version: 6.00 Build 0)  -->
<svg version="1.1" id="Layer_1" xmlns="http://www.w3.org/2000/svg" xmlns:xlink="http://www.w3.org/1999/xlink" x="0px" y="0px"
	 viewBox="0 0 55 52" style="enable-background:new 0 0 55 52;" xml:space="preserve">
<style type="text/css">
	.st0{fill:#FEFEFE;}
	.st1{fill:none;stroke:#438CDF;stroke-width:1.5;stroke-linecap:round;stroke-linejoin:round;}
	.st2{fill:#AED9FF;}
</style>
<g>
	<path class="st0" d="M50.5,50.6V18.3c1.4,0,2.6-1.1,2.6-2.5l0,0v-2.5L47.9,1H7.1L2,13.2v2.5c0,1.4,1.1,2.5,2.6,2.5c0,0,0,0,0,0
		v32.3C4.6,50.6,50.5,50.6,50.5,50.6z"/>
	<path class="st1" d="M1,51h52.7 M4,51.3V19 M50,51.3V19 M47.9,14.9v0.9c0,1.4-1.1,2.5-2.6,2.5c0,0,0,0,0,0c-1.4,0-2.6-1.1-2.6-2.5
		c0,0,0,0,0,0v-0.9v0.9c0,1.4-1.1,2.5-2.6,2.5c0,0,0,0,0,0c-1.4,0-2.6-1.1-2.6-2.5c0,0,0,0,0,0v-0.9v0.9c0,1.4-1.1,2.5-2.6,2.5
		c0,0,0,0,0,0c-1.4,0-2.6-1.1-2.6-2.5c0,0,0,0,0,0v-0.9v0.9c0,1.4-1.1,2.5-2.6,2.5c-1.4,0-2.6-1.1-2.6-2.5c0,0,0,0,0,0v-0.9v0.9
		c0,1.4-1.1,2.5-2.6,2.5c0,0,0,0,0,0c-1.4,0-2.6-1.1-2.6-2.5c0,0,0,0,0,0v-0.9v0.9c0,1.4-1.1,2.5-2.6,2.5c0,0,0,0,0,0
		c-1.4,0-2.6-1.1-2.6-2.5c0,0,0,0,0,0v-0.9v0.9c0,1.4-1.1,2.5-2.6,2.5c0,0,0,0,0,0c-1.4,0-2.6-1.1-2.6-2.5v-0.9v0.9
		c0,1.4-1.1,2.5-2.6,2.5c0,0,0,0,0,0c-1.4,0-2.6-1.1-2.6-2.5c0,0,0,0,0,0v-0.9v0.9c0,1.4-1.1,2.5-2.6,2.5c0,0,0,0,0,0
		c-1.4,0-2.6-1.1-2.6-2.5c0,0,0,0,0,0v-2.5L7.1,1h40.8L53,13.2v2.5c0,1.4-1.1,2.5-2.6,2.5h0c-1.4,0-2.6-1.1-2.6-2.5
		C47.9,15.8,47.9,14.9,47.9,14.9z M51.8,12H3 M33,50.4h11.9V30H33V50.4z"/>
	<path class="st2" d="M9,41.9h20.4V30H9V41.9z"/>
	<path class="st1" d="M9,41.9h20.4V30H9V41.9z M14.7,34L13,35.7 M17.4,35L14,38.4"/>
</g>
</svg>
