<?xml version="1.0" encoding="utf-8"?>
<!-- Generator: Adobe Illustrator 22.1.0, SVG Export Plug-In . SVG Version: 6.00 Build 0)  -->
<svg version="1.1" id="Layer_1" xmlns="http://www.w3.org/2000/svg" xmlns:xlink="http://www.w3.org/1999/xlink" x="0px" y="0px"
	 viewBox="0 0 127.5 127.5" style="enable-background:new 0 0 127.5 127.5;" xml:space="preserve">
<style type="text/css">
	.st0{fill:#FEFEFE;}
	.st1{fill:none;stroke:#438CDF;stroke-width:1.5;stroke-linecap:round;stroke-linejoin:round;}
	.st2{fill:#AED9FF;}
</style>
<g>
	<path class="st0" d="M55.5,118.6V86.3c1.4,0,2.6-1.1,2.6-2.5l0,0v-2.5L52.9,69H12.1L7,81.2v2.5c0,1.4,1.1,2.5,2.6,2.5l0,0v32.3
		C9.6,118.6,55.5,118.6,55.5,118.6z"/>
	<path class="st1" d="M6,119h52.7 M9,119.3V87 M55,119.3V87 M52.9,82.9v0.9c0,1.4-1.1,2.5-2.6,2.5l0,0c-1.4,0-2.6-1.1-2.6-2.5l0,0
		v-0.9v0.9c0,1.4-1.1,2.5-2.6,2.5l0,0c-1.4,0-2.6-1.1-2.6-2.5l0,0v-0.9v0.9c0,1.4-1.1,2.5-2.6,2.5l0,0c-1.4,0-2.6-1.1-2.6-2.5l0,0
		v-0.9v0.9c0,1.4-1.1,2.5-2.6,2.5c-1.4,0-2.6-1.1-2.6-2.5l0,0v-0.9v0.9c0,1.4-1.1,2.5-2.6,2.5l0,0c-1.4,0-2.6-1.1-2.6-2.5l0,0v-0.9
		v0.9c0,1.4-1.1,2.5-2.6,2.5l0,0c-1.4,0-2.6-1.1-2.6-2.5l0,0v-0.9v0.9c0,1.4-1.1,2.5-2.6,2.5l0,0c-1.4,0-2.6-1.1-2.6-2.5v-0.9v0.9
		c0,1.4-1.1,2.5-2.6,2.5l0,0c-1.4,0-2.6-1.1-2.6-2.5l0,0v-0.9v0.9c0,1.4-1.1,2.5-2.6,2.5l0,0c-1.4,0-2.6-1.1-2.6-2.5l0,0v-2.5
		l6-12.3h40.8L58,81.2v2.5c0,1.4-1.1,2.5-2.6,2.5l0,0c-1.4,0-2.6-1.1-2.6-2.5C52.9,83.8,52.9,82.9,52.9,82.9z M56.8,80H8 M38,118.4
		h11.9V98H38V118.4z"/>
	<path class="st2" d="M14,109.9h20.4V98H14V109.9z"/>
	<path class="st1" d="M14,109.9h20.4V98H14V109.9z M19.7,102l-1.7,1.7 M22.4,103l-3.4,3.4"/>
</g>
<g>
	<path class="st0" d="M118.2,118.6V86.3c1.4,0,2.6-1.1,2.6-2.5l0,0v-2.5L115.6,69H74.8l-5.1,12.2v2.5c0,1.4,1.1,2.5,2.6,2.5l0,0
		v32.3C72.3,118.6,118.2,118.6,118.2,118.6z"/>
	<path class="st1" d="M68.7,119h52.7 M71.7,119.3V87 M117.7,119.3V87 M115.6,82.9v0.9c0,1.4-1.1,2.5-2.6,2.5l0,0
		c-1.4,0-2.6-1.1-2.6-2.5l0,0v-0.9v0.9c0,1.4-1.1,2.5-2.6,2.5l0,0c-1.4,0-2.6-1.1-2.6-2.5l0,0v-0.9v0.9c0,1.4-1.1,2.5-2.6,2.5l0,0
		c-1.4,0-2.6-1.1-2.6-2.5l0,0v-0.9v0.9c0,1.4-1.1,2.5-2.6,2.5c-1.4,0-2.6-1.1-2.6-2.5l0,0v-0.9v0.9c0,1.4-1.1,2.5-2.6,2.5l0,0
		c-1.4,0-2.6-1.1-2.6-2.5l0,0v-0.9v0.9c0,1.4-1.1,2.5-2.6,2.5l0,0c-1.4,0-2.6-1.1-2.6-2.5l0,0v-0.9v0.9c0,1.4-1.1,2.5-2.6,2.5l0,0
		c-1.4,0-2.6-1.1-2.6-2.5v-0.9v0.9c0,1.4-1.1,2.5-2.6,2.5l0,0c-1.4,0-2.6-1.1-2.6-2.5l0,0v-0.9v0.9c0,1.4-1.1,2.5-2.6,2.5l0,0
		c-1.4,0-2.6-1.1-2.6-2.5l0,0v-2.5l6-12.3h40.8l5.1,12.2v2.5c0,1.4-1.1,2.5-2.6,2.5l0,0c-1.4,0-2.6-1.1-2.6-2.5
		C115.6,83.8,115.6,82.9,115.6,82.9z M119.5,80H70.7 M100.7,118.4h11.9V98h-11.9V118.4z"/>
	<path class="st2" d="M76.7,109.9h20.4V98H76.7V109.9z"/>
	<path class="st1" d="M76.7,109.9h20.4V98H76.7V109.9z M82.4,102l-1.7,1.7 M85.1,103l-3.4,3.4"/>
</g>
<g>
	<path class="st0" d="M87.5,58.3V26c1.4,0,2.6-1.1,2.6-2.5l0,0V21L84.9,8.7H44.1L39,20.9v2.5c0,1.4,1.1,2.5,2.6,2.5l0,0v32.3
		C41.6,58.3,87.5,58.3,87.5,58.3z"/>
	<path class="st1" d="M38,58.7h52.7 M41,59V26.7 M87,59V26.7 M84.9,22.6v0.9c0,1.4-1.1,2.5-2.6,2.5l0,0c-1.4,0-2.6-1.1-2.6-2.5l0,0
		v-0.9v0.9c0,1.4-1.1,2.5-2.6,2.5l0,0c-1.4,0-2.6-1.1-2.6-2.5l0,0v-0.9v0.9c0,1.4-1.1,2.5-2.6,2.5l0,0c-1.4,0-2.6-1.1-2.6-2.5l0,0
		v-0.9v0.9c0,1.4-1.1,2.5-2.6,2.5c-1.4,0-2.6-1.1-2.6-2.5l0,0v-0.9v0.9c0,1.4-1.1,2.5-2.6,2.5l0,0c-1.4,0-2.6-1.1-2.6-2.5l0,0v-0.9
		v0.9c0,1.4-1.1,2.5-2.6,2.5l0,0c-1.4,0-2.6-1.1-2.6-2.5l0,0v-0.9v0.9c0,1.4-1.1,2.5-2.6,2.5l0,0c-1.4,0-2.6-1.1-2.6-2.5v-0.9v0.9
		c0,1.4-1.1,2.5-2.6,2.5l0,0c-1.4,0-2.6-1.1-2.6-2.5l0,0v-0.9v0.9c0,1.4-1.1,2.5-2.6,2.5l0,0c-1.4,0-2.6-1.1-2.6-2.5l0,0V21l6-12.3
		h40.8L90,20.9v2.5c0,1.4-1.1,2.5-2.6,2.5l0,0c-1.4,0-2.6-1.1-2.6-2.5C84.9,23.5,84.9,22.6,84.9,22.6z M88.8,19.7H40 M70,58.1h11.9
		V37.7H70V58.1z"/>
	<path class="st2" d="M46,49.6h20.4V37.7H46V49.6z"/>
	<path class="st1" d="M46,49.6h20.4V37.7H46V49.6z M51.7,41.7L50,43.4 M54.4,42.7L51,46.1"/>
</g>
</svg>
