<?xml version="1.0" encoding="utf-8"?>
<!-- Generator: Adobe Illustrator 22.1.0, SVG Export Plug-In . SVG Version: 6.00 Build 0)  -->
<svg version="1.1" id="Layer_1" xmlns="http://www.w3.org/2000/svg" xmlns:xlink="http://www.w3.org/1999/xlink" x="0px" y="0px"
	 viewBox="0 0 51 51" style="enable-background:new 0 0 51 51;" xml:space="preserve">
<style type="text/css">
	.st0{fill:#AED9FF;}
	.st1{fill:#438CDF;}
</style>
<g>
	<path class="st0" d="M15.4,11.6l-0.6,5.5l-0.9,0.7l-2.1-0.7l-0.4-4.6l2.5-6.1l5.4-4.5l7.5-1.5l5.9,2.2l4.5,4.2l1.8,5.3v5l-2.6,0.7
		L35,13.6l-5.9-1.1L26,10.7l-3.7-2.8l-2.2,2.8L15.4,11.6z"/>
	<path class="st1" d="M25.5,36.1c-5.2,0-9.9-4.2-11.8-10.6c-1.8-0.1-3.1-2.3-3.1-5.3c0-0.8,0.1-1.7,0.3-2.4c-0.2-1.1-0.3-2-0.3-2.9
		C10.6,6.7,17.3,0,25.5,0c8.2,0,14.9,6.7,14.9,14.9c0,0.9-0.1,1.8-0.3,2.9c0.2,0.7,0.3,1.6,0.3,2.4c0,3-1.3,5.2-3.1,5.3
		C35.3,31.9,30.7,36.1,25.5,36.1z M14.4,23.2c0.1,0,0.3,0,0.4,0.1c0.3,0.1,0.6,0.4,0.7,0.7c1.5,6,5.5,10,10,10c4.5,0,8.5-4,10-10
		c0.1-0.6,0.7-0.9,1.3-0.8c0.1,0,0.2,0.1,0.3,0.1c0.4,0.1,1.1-1.1,1.1-3.1c0-0.7-0.1-1.4-0.3-2c-0.1-0.2-0.1-0.4,0-0.6
		c0.2-1,0.3-1.9,0.3-2.7c0-7-5.7-12.7-12.7-12.7c-7,0-12.7,5.7-12.7,12.7c0,0.8,0.1,1.7,0.3,2.7c0,0.2,0,0.4,0,0.6
		c-0.2,0.7-0.3,1.3-0.3,2c0,2.1,0.8,3.2,1.1,3.2C14,23.2,14.2,23.2,14.4,23.2z"/>
	<path class="st1" d="M36.1,19.1c-0.4,0-0.8-0.2-1-0.6c0-0.1-0.8-1.9-1.1-3.6c-4.5-0.3-9.1-2.5-11.3-4.7c-0.2,0.3-0.4,0.6-0.7,0.9
		c-1.7,1.7-4.4,1.7-5.8,1.7c-0.3,0.7-0.4,3-0.3,5.2c0,0.3-0.1,0.6-0.3,0.9c-0.2,0.2-0.6,0.3-0.9,0.3c0,0-1.5-0.2-2.7-0.2
		c-0.6,0-1.1-0.5-1.1-1.1c0-0.6,0.5-1.1,1.1-1.1c0.6,0,1.2,0,1.7,0.1c-0.1-1.9,0-4.7,1-5.7c0.4-0.4,0.9-0.5,1.5-0.5
		c1.3,0,3.2-0.1,4.3-1.1C21,9,21.2,8.3,21.2,7.4c0-0.6,0.5-1.1,1.1-1.1c0.6,0,1.1,0.5,1.1,1.1c0.1,1.1,5.4,5.3,11.7,5.3
		c0.6,0,1.1,0.5,1.1,1.1c0,1.1,0.4,2.3,0.7,3.1l2-0.2c0.6,0,1.1,0.4,1.1,1s-0.4,1.1-1,1.1L36.1,19.1C36.1,19.1,36.1,19.1,36.1,19.1z
		"/>
	<path class="st1" d="M22.3,21.2h-2.1c-0.6,0-1.1-0.5-1.1-1.1c0-0.6,0.5-1.1,1.1-1.1h2.1c0.6,0,1.1,0.5,1.1,1.1
		C23.3,20.7,22.9,21.2,22.3,21.2z M30.8,21.2h-2.1c-0.6,0-1.1-0.5-1.1-1.1c0-0.6,0.5-1.1,1.1-1.1h2.1c0.6,0,1.1,0.5,1.1,1.1
		C31.8,20.7,31.4,21.2,30.8,21.2z M49.9,50.9H1.1c-0.6,0-1.1-0.5-1.1-1.1c0-0.1,0-0.2,0-0.3L1.7,43c0.4-1.5,1.4-2.8,2.8-3.5l11-5.5
		c0.5-0.3,1.2-0.1,1.4,0.5c0,0,0,0,0,0.1l5.5,12.8l0.8-1.6c-0.7-1-1.9-2.9-1.9-4.4c0-2,1.6-3.2,4.2-3.2c2.6,0,4.2,1.2,4.2,3.2
		c0,1.5-1.2,3.4-1.9,4.4l0.8,1.6L34,34.6c0.2-0.5,0.9-0.8,1.4-0.6c0,0,0,0,0.1,0l11,5.5c1.4,0.7,2.4,2,2.8,3.5l1.7,6.6
		c0.1,0.3,0,0.7-0.2,0.9C50.5,50.8,50.2,50.9,49.9,50.9L49.9,50.9z M30.3,48.8h18.3l-1.3-5.3c-0.2-0.9-0.8-1.7-1.7-2.1l-10-5
		C35.6,36.5,30.3,48.8,30.3,48.8z M24,48.8h2.9l-1.4-2.7c-0.2-0.4-0.1-0.8,0.1-1.1c0.8-1,1.9-2.7,1.9-3.6c0-1-1.5-1.1-2.1-1.1
		c-0.6,0-2.1,0.1-2.1,1.1c0,0.8,1.1,2.6,1.9,3.6c0.3,0.3,0.3,0.8,0.1,1.1L24,48.8L24,48.8z M2.4,48.8h18.3l-5.3-12.3l-10,5
		c-0.8,0.4-1.4,1.2-1.7,2.1L2.4,48.8L2.4,48.8z"/>
</g>
</svg>
